<svg xmlns="http://www.w3.org/2000/svg" viewBox="0 0 366.56 672.68"><defs><style>.cls-1{fill:#765329;}.cls-1,.cls-2,.cls-3,.cls-4,.cls-5,.cls-6{stroke:#231f20;stroke-linecap:round;stroke-miterlimit:10;}.cls-2,.cls-7{fill:#a57711;}.cls-3{fill:#ffdcc8;}.cls-4{fill:#e6e7e8;}.cls-5{fill:#fdfdfd;}.cls-6{fill:#1e1e1e;}</style></defs><g id="Layer_2" data-name="Layer 2"><g id="Layer_1-2" data-name="Layer 1"><rect class="cls-1" x="129.11" y="0.5" width="176.68" height="247.03" rx="16"/><path class="cls-2" d="M-13.08,278.06H224.55a11.36,11.36,0,0,1,11.36,11.36v30.23A11.36,11.36,0,0,1,224.55,331h-249a0,0,0,0,1,0,0v-41.6A11.36,11.36,0,0,1-13.08,278.06Z" transform="translate(426.12 340.29) rotate(115.51)"/><path class="cls-2" d="M282.12,315.64H391.69A11.36,11.36,0,0,1,403,327v33.94a11.36,11.36,0,0,1-11.36,11.36H270.76a0,0,0,0,1,0,0V327A11.36,11.36,0,0,1,282.12,315.64Z" transform="translate(680.88 7.07) rotate(90)"/><rect class="cls-3" x="137.82" y="15.72" width="152.43" height="159.36" rx="31.4"/><rect class="cls-4" x="122.81" y="170.63" width="183.51" height="265.32" rx="31.4"/><rect class="cls-3" x="-0.6" y="457.68" width="24.44" height="7.54" transform="translate(-409.84 273.18) rotate(-64.49)"/><rect class="cls-3" x="1.48" y="451.9" width="24.32" height="9.13" transform="translate(-171.82 39.15) rotate(-22.25)"/><rect class="cls-3" x="14.42" y="418.88" width="54.47" height="48.09" rx="19.84" transform="translate(-111.53 860.61) rotate(-154.49)"/><path class="cls-2" d="M316,214h38.09a11.36,11.36,0,0,1,11.36,11.36v42.77a11.36,11.36,0,0,1-11.36,11.36H316.43a11.36,11.36,0,0,1-11.36-11.36V225A11,11,0,0,1,316,214Z" transform="translate(670.54 493.51) rotate(-180)"/><path class="cls-4" d="M54.27,525.69H279.14a11.36,11.36,0,0,1,11.36,11.36v34a11.36,11.36,0,0,1-11.36,11.36H65.63a11.36,11.36,0,0,1-11.36-11.36V525.69a0,0,0,0,1,0,0Z" transform="translate(726.45 381.68) rotate(90)"/><path class="cls-4" d="M140,524.36H353.53a11.36,11.36,0,0,1,11.36,11.36v36.7a11.36,11.36,0,0,1-11.36,11.36H128.65a0,0,0,0,1,0,0V535.72A11.36,11.36,0,0,1,140,524.36Z" transform="translate(800.84 307.29) rotate(90)"/><ellipse class="cls-5" cx="184.29" cy="46.77" rx="19.6" ry="12.97" transform="translate(-1.93 8.41) rotate(-2.6)"/><ellipse class="cls-5" cx="246.77" cy="46.77" rx="19.6" ry="12.97" transform="translate(-1.87 11.24) rotate(-2.6)"/><ellipse class="cls-6" cx="246.77" cy="46.77" rx="9.08" ry="8.34" transform="translate(-1.87 11.24) rotate(-2.6)"/><ellipse class="cls-6" cx="184.29" cy="46.77" rx="9.08" ry="8.34" transform="translate(-1.93 8.41) rotate(-2.6)"/><path class="cls-5" d="M232.18,121.3l-29.82,1.35a4.52,4.52,0,0,0-1.16,8.83l6.84,2.17a19.88,19.88,0,0,0,13.64-.62l12-5A3.48,3.48,0,0,0,232.18,121.3Z"/><rect class="cls-3" x="11.88" y="450.03" width="30.31" height="7.54" transform="translate(-394.16 282.73) rotate(-64.49)"/><rect class="cls-3" x="20.13" y="454.61" width="32.96" height="7.54" transform="translate(-392.84 293.98) rotate(-64.49)"/><rect class="cls-3" x="30.73" y="459.81" width="30.31" height="7.54" transform="translate(-392.26 305.32) rotate(-64.49)"/><rect class="cls-2" x="122.28" y="170.63" width="183.51" height="265.32" rx="31.4"/><path class="cls-7" d="M274.33,623.46H153.63c-17.34,0-86.49-4.27-86.49-21.61l55.08-212.31a31.41,31.41,0,0,1,31.41-31.4h120.7a31.4,31.4,0,0,1,31.4,31.4l36,202.09C341.76,609,291.67,623.46,274.33,623.46Z"/><rect class="cls-3" x="318.66" y="405.7" width="43.08" height="48.09" rx="19.84" transform="translate(680.41 859.49) rotate(-180)"/><rect class="cls-3" x="335.1" y="459.35" width="30.31" height="5.96" transform="translate(-112.07 812.58) rotate(-90)"/><rect class="cls-3" x="323.35" y="462.45" width="30.31" height="5.96" transform="translate(-126.93 803.93) rotate(-90)"/><rect class="cls-3" x="325.38" y="460.67" width="32.96" height="5.96" transform="translate(-121.79 805.52) rotate(-90)"/><rect class="cls-3" x="317.89" y="459.52" width="24.44" height="5.96" transform="translate(-132.39 792.6) rotate(-90)"/><polygon class="cls-3" points="360.12 442.22 365.97 465.38 359.09 468.16 353.24 445 360.12 442.22"/><path class="cls-4" d="M197.36,292.42l-19.77-9.25L64.78,524.22c-2.28,4.87-6.56,24.23-1.69,26.51h0c5.53,2.59,19.44-12.93,22-18.47Z"/><rect class="cls-4" x="135.08" y="329.24" width="60.26" height="13.79" transform="translate(172.36 710.6) rotate(-154.92)"/><rect class="cls-1" x="122.28" y="343.97" width="183.51" height="24.19"/></g></g></svg>