<svg xmlns="http://www.w3.org/2000/svg" viewBox="0 0 470.91 802.46"><defs><style>.cls-1{fill:#ffdcc8;}.cls-1,.cls-2,.cls-3,.cls-4,.cls-5,.cls-6{stroke:#231f20;stroke-linecap:round;stroke-miterlimit:10;}.cls-2{fill:#3c2a1d;}.cls-3{fill:#e6e7e8;}.cls-4{fill:#fdfdfd;}.cls-5{fill:#1e1e1e;}.cls-6{fill:#3a3632;}</style></defs><g id="Layer_2" data-name="Layer 2"><g id="Layer_1-2" data-name="Layer 1"><rect class="cls-1" x="418.91" y="557.84" width="43.08" height="48.09" rx="19.84" transform="translate(906.84 1143.21) rotate(177.4)"/><rect class="cls-1" x="436.82" y="611" width="30.31" height="5.96" transform="translate(-140.88 1093.33) rotate(-92.6)"/><rect class="cls-1" x="425.22" y="614.63" width="30.31" height="5.96" transform="translate(-156.64 1085.54) rotate(-92.6)"/><rect class="cls-1" x="427.17" y="612.71" width="32.96" height="5.96" transform="translate(-151.29 1086.8) rotate(-92.6)"/><rect class="cls-1" x="419.63" y="612.08" width="24.44" height="5.96" transform="translate(-163 1074.37) rotate(-92.6)"/><polygon class="cls-1" points="460.91 593.45 467.81 616.32 461.07 619.41 454.17 596.53 460.91 593.45"/><rect class="cls-2" x="193.97" y="85.8" width="189.08" height="127.2" rx="16"/><rect class="cls-1" x="211.78" y="124.54" width="152.43" height="176.94" rx="31.4"/><rect class="cls-3" x="175.39" y="300.41" width="225.19" height="265.32" rx="31.4"/><path class="cls-3" d="M77.35,338.37H164a11.36,11.36,0,0,1,11.36,11.36v42.77A11.36,11.36,0,0,1,164,403.86H66a0,0,0,0,1,0,0V349.73A11.36,11.36,0,0,1,77.35,338.37Z"/><path class="cls-3" d="M-31.61,294.9H98.1a11.36,11.36,0,0,1,11.36,11.36V349A11.36,11.36,0,0,1,98.1,360.39H-43a0,0,0,0,1,0,0V306.26A11.36,11.36,0,0,1-31.61,294.9Z" transform="translate(-294.4 360.89) rotate(-90)"/><rect class="cls-1" x="25.22" y="199.27" width="30.31" height="7.54" transform="translate(243.42 162.66) rotate(90)"/><rect class="cls-1" x="38.77" y="202.2" width="24.44" height="7.54" transform="translate(256.96 154.98) rotate(90)"/><rect class="cls-1" x="4.62" y="211.57" width="54.47" height="48.09" rx="19.84"/><path class="cls-3" d="M400.59,346.61H459A11.36,11.36,0,0,1,470.41,358v42.77A11.36,11.36,0,0,1,459,412.1h-47.1a11.36,11.36,0,0,1-11.36-11.36V346.61A0,0,0,0,1,400.59,346.61Z" transform="translate(870.99 758.7) rotate(-180)"/><path class="cls-3" d="M359.28,453.54H500.35a11.36,11.36,0,0,1,11.36,11.36v42.77A11.36,11.36,0,0,1,500.35,519H370.65a11.36,11.36,0,0,1-11.36-11.36V453.54A0,0,0,0,1,359.28,453.54Z" transform="translate(-50.78 921.78) rotate(-90)"/><path class="cls-3" d="M123.85,651.1H348.72a11.36,11.36,0,0,1,11.36,11.36v42.77a11.36,11.36,0,0,1-11.36,11.36H135.21a11.36,11.36,0,0,1-11.36-11.36V651.1a0,0,0,0,1,0,0Z" transform="translate(925.81 441.88) rotate(90)"/><path class="cls-3" d="M224.7,651.1H438.21a11.36,11.36,0,0,1,11.36,11.36v42.77a11.36,11.36,0,0,1-11.36,11.36H213.34a0,0,0,0,1,0,0V662.46A11.36,11.36,0,0,1,224.7,651.1Z" transform="translate(1015.3 352.39) rotate(90)"/><ellipse class="cls-4" cx="258.25" cy="173.16" rx="19.6" ry="12.97" transform="translate(-7.59 11.89) rotate(-2.6)"/><ellipse class="cls-4" cx="320.73" cy="173.16" rx="19.6" ry="12.97" transform="translate(-7.52 14.72) rotate(-2.6)"/><ellipse class="cls-5" cx="320.73" cy="173.16" rx="9.08" ry="8.34" transform="translate(-7.52 14.72) rotate(-2.6)"/><ellipse class="cls-5" cx="258.25" cy="173.16" rx="9.08" ry="8.34" transform="matrix(1, -0.05, 0.05, 1, -7.59, 11.89)"/><path class="cls-4" d="M270.66,257.66h29.85a4.52,4.52,0,0,0,1.56-8.77l-6.73-2.47a19.78,19.78,0,0,0-13.65,0l-12.23,4.49A3.48,3.48,0,0,0,270.66,257.66Z"/><rect class="cls-2" x="285.77" y="231.31" width="47.29" height="16.1" rx="8.05" transform="translate(140.63 -113.54) rotate(26.71)"/><rect class="cls-2" x="245.84" y="231.31" width="47.29" height="16.1" rx="8.05" transform="translate(617.8 332.02) rotate(153.29)"/><path class="cls-6" d="M400.59,518.16c0-7.86.63-15.7.55-23.57a5.06,5.06,0,0,1,.18-1.38c-.12-1.37-.24-2.75-.32-4.11L189.2,304.54a4.15,4.15,0,0,1-.78.24,32.77,32.77,0,0,0-6.33,5.42,25.59,25.59,0,0,0-3.4,6c-1.59,4-4.12,10-3.7,14.6L400.38,527.16C400.13,524.28,400.58,521.12,400.59,518.16Z"/><path class="cls-6" d="M399.09,320c-1.33-3-4-5.42-6.09-7.84a46.21,46.21,0,0,0-7.14-7.05,26.43,26.43,0,0,0-6.39-3.26L175.32,479.7a38.54,38.54,0,0,1-.62,9.65c.69,2.09.31,4.33.08,6.67.05,2.34.1,4.69.25,7,.32,5,.74,9.86.22,14.85,0,.13.05.27.06.41L400,322.54A20.8,20.8,0,0,0,399.09,320Z"/><path class="cls-3" d="M190.4,1.05c-5.1-3.39-21.16,9.89-24.55,15L19.15,236.48l18.17,12.09L184.77,27c3-4.47,10.1-23,5.63-26"/><rect class="cls-3" x="27.33" y="191.15" width="60.26" height="13.79" transform="translate(119.34 1.34) rotate(33.64)"/><rect class="cls-1" x="23.18" y="214.42" width="32.96" height="7.54" transform="matrix(0.54, 0.84, -0.84, 0.54, 201.32, 66.39)"/><rect class="cls-1" x="13.11" y="217.35" width="30.31" height="7.54" transform="translate(198.58 77.29) rotate(57.1)"/><rect class="cls-1" x="3.22" y="216.56" width="24.32" height="9.13" transform="translate(221.33 139.16) rotate(72.28)"/></g></g></svg>