<svg xmlns="http://www.w3.org/2000/svg" viewBox="0 0 459.52 844.52"><defs><style>.cls-1{fill:#fafc9a;}.cls-1,.cls-2,.cls-3,.cls-4,.cls-5,.cls-6{stroke:#231f20;stroke-linecap:round;stroke-miterlimit:10;}.cls-2{fill:#ffdcc8;}.cls-3{fill:#e6e7e8;}.cls-4{fill:#fdfdfd;}.cls-5{fill:#1e1e1e;}.cls-6{fill:#42505b;}</style></defs><g id="Layer_2" data-name="Layer 2"><g id="Layer_1-2" data-name="Layer 1"><rect class="cls-1" x="212.45" y="154.59" width="189.08" height="264.77" rx="16"/><path class="cls-2" d="M24.91,312.87H262.53a11.36,11.36,0,0,1,11.36,11.36v30.23a11.36,11.36,0,0,1-11.36,11.36h-249a0,0,0,0,1,0,0v-41.6A11.36,11.36,0,0,1,24.91,312.87Z" transform="translate(4.41 680.53) rotate(-134.84)"/><path class="cls-2" d="M375.08,487.48H484.64A11.36,11.36,0,0,1,496,498.84v33.94a11.36,11.36,0,0,1-11.36,11.36H363.72a0,0,0,0,1,0,0v-45.3a11.36,11.36,0,0,1,11.36-11.36Z" transform="translate(945.66 85.95) rotate(90)"/><rect class="cls-2" x="230.77" y="187.56" width="152.43" height="159.36" rx="31.4"/><rect class="cls-2" x="215.76" y="342.47" width="183.51" height="265.32" rx="31.4"/><rect class="cls-2" x="15.38" y="194.18" width="24.44" height="7.54" transform="translate(148.51 38.81) rotate(45.16)"/><rect class="cls-2" x="19.45" y="196.96" width="24.32" height="9.13" transform="translate(231.49 160.81) rotate(87.4)"/><rect class="cls-2" x="7.7" y="208.42" width="54.47" height="48.09" rx="19.84" transform="translate(-153.75 92.25) rotate(-44.84)"/><path class="cls-2" d="M409,385.85h38.09a11.36,11.36,0,0,1,11.36,11.36V440a11.36,11.36,0,0,1-11.36,11.36H409.38A11.36,11.36,0,0,1,398,440V396.81A11,11,0,0,1,409,385.85Z" transform="translate(856.45 837.19) rotate(-180)"/><path class="cls-3" d="M147.22,697.53H372.09a11.36,11.36,0,0,1,11.36,11.36v34a11.36,11.36,0,0,1-11.36,11.36H158.58a11.36,11.36,0,0,1-11.36-11.36V697.53a0,0,0,0,1,0,0Z" transform="translate(991.24 460.57) rotate(90)"/><path class="cls-3" d="M233,696.19H446.48a11.36,11.36,0,0,1,11.36,11.36v36.7a11.36,11.36,0,0,1-11.36,11.36H221.61a0,0,0,0,1,0,0V707.55A11.36,11.36,0,0,1,233,696.19Z" transform="translate(1065.63 386.18) rotate(90)"/><ellipse class="cls-4" cx="277.24" cy="218.61" rx="19.6" ry="12.97" transform="translate(-9.63 12.8) rotate(-2.6)"/><ellipse class="cls-4" cx="339.72" cy="218.61" rx="19.6" ry="12.97" transform="translate(-9.56 15.63) rotate(-2.6)"/><ellipse class="cls-5" cx="339.72" cy="218.61" rx="9.08" ry="8.34" transform="translate(-9.56 15.63) rotate(-2.6)"/><ellipse class="cls-5" cx="277.24" cy="218.61" rx="9.08" ry="8.34" transform="matrix(1, -0.05, 0.05, 1, -9.63, 12.8)"/><path class="cls-4" d="M325.14,293.13l-29.82,1.36a4.52,4.52,0,0,0-1.16,8.82l6.84,2.17a19.74,19.74,0,0,0,13.63-.62l12-5.05A3.48,3.48,0,0,0,325.14,293.13Z"/><path class="cls-3" d="M5.76,236.48l18.18,12.09L171.38,27c3-4.47,10.1-23,5.63-26h0c-5.09-3.39-21.15,9.89-24.54,15Z"/><rect class="cls-3" x="13.94" y="191.15" width="60.26" height="13.79" transform="translate(117.1 8.76) rotate(33.64)"/><rect class="cls-2" x="14.46" y="211.26" width="30.31" height="7.54" transform="translate(161.22 42.42) rotate(45.16)"/><rect class="cls-2" x="5.61" y="218.75" width="32.96" height="7.54" transform="translate(164.31 49.96) rotate(45.16)"/><rect class="cls-2" x="-1.09" y="225.73" width="30.31" height="7.54" transform="translate(166.89 57.71) rotate(45.16)"/><path class="cls-6" d="M367.33,607.78H246.64a31.4,31.4,0,0,1-31.41-31.4V373.87a31.4,31.4,0,0,1,31.41-31.4l60.87,62.68,59.82-62.68a31.4,31.4,0,0,1,31.41,31.4V576.38A31.4,31.4,0,0,1,367.33,607.78Z"/><path class="cls-6" d="M367.28,789.15H246.58c-17.34,0-86.49-4.17-86.49-21.11l55.09-207.39c0-16.94,14.06-30.68,31.4-30.68h120.7c17.34,0,31.4,13.74,31.4,30.68l36,197.41C434.71,775,384.62,789.15,367.28,789.15Z"/><rect class="cls-2" x="411.62" y="577.53" width="43.08" height="48.09" rx="19.84" transform="translate(866.31 1203.16) rotate(-180)"/><rect class="cls-2" x="428.06" y="631.18" width="30.31" height="5.96" transform="translate(-190.96 1077.37) rotate(-90)"/><rect class="cls-2" x="416.3" y="634.28" width="30.31" height="5.96" transform="translate(-205.81 1068.72) rotate(-90)"/><rect class="cls-2" x="418.33" y="632.51" width="32.96" height="5.96" transform="translate(-200.68 1070.3) rotate(-90)"/><rect class="cls-2" x="410.84" y="631.35" width="24.44" height="5.96" transform="translate(-211.27 1057.39) rotate(-90)"/><polygon class="cls-2" points="453.07 614.05 458.93 637.22 452.05 640 446.19 616.83 453.07 614.05"/></g></g></svg>