<svg xmlns="http://www.w3.org/2000/svg" xmlns:xlink="http://www.w3.org/1999/xlink" viewBox="0 0 657.18 802.46"><defs><style>.cls-1,.cls-11{fill:#1e1e1e;}.cls-1,.cls-10,.cls-11,.cls-2,.cls-3,.cls-4,.cls-5,.cls-6,.cls-7,.cls-8,.cls-9{stroke:#231f20;stroke-linecap:round;stroke-miterlimit:10;}.cls-2{fill:#ffdcc8;}.cls-3{fill:#e6e7e8;}.cls-4{fill:#765329;}.cls-5{fill:#fdfdfd;}.cls-6{fill:#3a3632;}.cls-7{fill:url(#Earthtone_29_Radial);}.cls-8{fill:#8e98a0;}.cls-9{fill:#762b29;}.cls-10{fill:none;}.cls-10,.cls-11{stroke-width:0.5px;}</style><radialGradient id="Earthtone_29_Radial" cx="544.09" cy="205.97" r="64.15" gradientUnits="userSpaceOnUse"><stop offset="0" stop-color="#698a91"/><stop offset="0.54" stop-color="#335c64"/><stop offset="1" stop-color="#02383b"/></radialGradient></defs><g id="Layer_2" data-name="Layer 2"><g id="Layer_1-2" data-name="Layer 1"><rect class="cls-1" x="195.32" y="85.8" width="189.08" height="264.77" rx="16"/><rect class="cls-2" x="213.13" y="124.54" width="152.43" height="176.94" rx="31.4"/><rect class="cls-3" x="176.75" y="300.41" width="225.19" height="265.32" rx="31.4"/><path class="cls-3" d="M78.7,338.37h86.68a11.36,11.36,0,0,1,11.36,11.36v42.77a11.36,11.36,0,0,1-11.36,11.36h-98a0,0,0,0,1,0,0V349.73A11.36,11.36,0,0,1,78.7,338.37Z"/><path class="cls-3" d="M-30.25,294.9H99.45a11.36,11.36,0,0,1,11.36,11.36V349a11.36,11.36,0,0,1-11.36,11.36H-41.62a0,0,0,0,1,0,0V306.26A11.36,11.36,0,0,1-30.25,294.9Z" transform="translate(-293.05 362.24) rotate(-90)"/><path class="cls-3" d="M20.5,236.48l18.17,12.09L186.12,27c3-4.47,10.1-23,5.63-26h0c-5.09-3.39-21.16,9.89-24.54,15Z"/><rect class="cls-3" x="28.68" y="191.15" width="60.26" height="13.79" transform="translate(119.57 0.59) rotate(33.64)"/><rect class="cls-2" x="5.35" y="199.27" width="30.31" height="7.54" transform="translate(223.54 182.54) rotate(90)"/><rect class="cls-2" x="26.58" y="199.27" width="30.31" height="7.54" transform="translate(244.77 161.31) rotate(90)"/><rect class="cls-2" x="14.63" y="197.94" width="32.96" height="7.54" transform="translate(232.83 170.6) rotate(90)"/><rect class="cls-2" x="40.12" y="202.2" width="24.44" height="7.54" transform="translate(258.31 153.63) rotate(90)"/><rect class="cls-2" x="-3.48" y="205.61" width="24.32" height="9.13" transform="matrix(0.3, 0.95, -0.95, 0.3, 206.24, 137.93)"/><rect class="cls-2" x="5.98" y="211.57" width="54.47" height="48.09" rx="19.84"/><path class="cls-3" d="M401.94,346.61h98A11.36,11.36,0,0,1,511.34,358v42.77A11.36,11.36,0,0,1,500,412.1H413.3a11.36,11.36,0,0,1-11.36-11.36V346.61A0,0,0,0,1,401.94,346.61Z" transform="translate(913.28 758.7) rotate(-180)"/><path class="cls-3" d="M467.87,303.14H608.94A11.36,11.36,0,0,1,620.3,314.5v42.77a11.36,11.36,0,0,1-11.36,11.36H479.23a11.36,11.36,0,0,1-11.36-11.36V303.14a0,0,0,0,1,0,0Z" transform="translate(208.2 879.97) rotate(-90)"/><rect class="cls-4" x="431.49" y="73.31" width="225.19" height="265.32" rx="31.4"/><path class="cls-3" d="M125.2,651.1H350.07a11.36,11.36,0,0,1,11.36,11.36v42.77a11.36,11.36,0,0,1-11.36,11.36H136.56a11.36,11.36,0,0,1-11.36-11.36V651.1a0,0,0,0,1,0,0Z" transform="translate(927.16 440.53) rotate(90)"/><path class="cls-3" d="M226.05,651.1H439.56a11.36,11.36,0,0,1,11.36,11.36v42.77a11.36,11.36,0,0,1-11.36,11.36H214.69a0,0,0,0,1,0,0V662.46A11.36,11.36,0,0,1,226.05,651.1Z" transform="translate(1016.65 351.04) rotate(90)"/><ellipse class="cls-5" cx="259.6" cy="173.16" rx="19.6" ry="12.97" transform="translate(-7.59 11.95) rotate(-2.6)"/><ellipse class="cls-5" cx="322.08" cy="173.16" rx="19.6" ry="12.97" transform="translate(-7.52 14.78) rotate(-2.6)"/><ellipse class="cls-1" cx="322.08" cy="173.16" rx="9.08" ry="8.34" transform="translate(-7.52 14.78) rotate(-2.6)"/><ellipse class="cls-1" cx="259.6" cy="173.16" rx="9.08" ry="8.34" transform="translate(-7.59 11.95) rotate(-2.6)"/><path class="cls-5" d="M272,257.66h29.85a4.52,4.52,0,0,0,1.56-8.77l-6.73-2.47a19.78,19.78,0,0,0-13.65,0l-12.23,4.49A3.48,3.48,0,0,0,272,257.66Z"/><rect class="cls-1" x="296.93" y="232.9" width="47.29" height="16.1" rx="8.05" transform="translate(142.53 -118.39) rotate(26.71)"/><rect class="cls-1" x="267.19" y="226.24" width="47.49" height="16.1" rx="8.05"/><rect class="cls-1" x="235.96" y="232.9" width="47.29" height="16.1" rx="8.05" transform="translate(599.81 339.49) rotate(153.29)"/><path class="cls-1" d="M301.53,327.37H276.06c-8.8,0-22.46-23.55-22.46-32.35V284.64a16,16,0,0,1,16-16h39.49a16,16,0,0,1,16,16V295C325.09,303.82,310.33,327.37,301.53,327.37Z"/><path class="cls-6" d="M401.94,518.16c0-7.86.63-15.7.55-23.57a5.06,5.06,0,0,1,.18-1.38c-.12-1.37-.24-2.75-.32-4.11L190.55,304.54a4.15,4.15,0,0,1-.78.24,32.77,32.77,0,0,0-6.33,5.42,25.59,25.59,0,0,0-3.4,6c-1.59,4-4.12,10-3.7,14.6L401.73,527.16C401.48,524.28,401.93,521.12,401.94,518.16Z"/><path class="cls-6" d="M400.44,320c-1.33-3-4-5.42-6.08-7.84a46.28,46.28,0,0,0-7.15-7.05,26.25,26.25,0,0,0-6.39-3.26L176.68,479.7a39,39,0,0,1-.63,9.65c.69,2.09.32,4.33.08,6.67.05,2.34.1,4.69.25,7,.32,5,.74,9.86.22,14.85,0,.13.05.27.06.41L401.35,322.54A19.28,19.28,0,0,0,400.44,320Z"/><circle class="cls-7" cx="544.09" cy="205.97" r="64.15"/><path class="cls-8" d="M516.6,244.88l6.61,4.4,53.64-80.61c1.09-1.63,3.68-8.36,2-9.44h0c-1.85-1.24-7.7,3.6-8.93,5.45Z"/><rect class="cls-9" x="519.57" y="228.39" width="21.92" height="5.02" transform="translate(216.79 -255.25) rotate(33.64)"/><line class="cls-10" x1="578.92" y1="159.77" x2="532.15" y2="229.49"/><path class="cls-8" d="M571.57,244.88l-6.61,4.4-53.64-80.61c-1.08-1.63-3.68-8.36-2.05-9.44h0c1.85-1.24,7.7,3.6,8.93,5.45Z"/><rect class="cls-9" x="546.68" y="228.39" width="21.92" height="5.02" transform="translate(1149.79 114.17) rotate(146.36)"/><line class="cls-10" x1="509.27" y1="159.23" x2="556.04" y2="228.95"/><rect class="cls-11" x="523.1" y="234.96" width="7.75" height="3.34" transform="translate(219.37 -252.33) rotate(33.64)"/><rect class="cls-11" x="519.79" y="239.94" width="7.75" height="3.34" transform="translate(221.57 -249.65) rotate(33.64)"/><rect class="cls-11" x="516.87" y="244.08" width="7.75" height="3.34" transform="translate(223.38 -247.34) rotate(33.64)"/><rect class="cls-11" x="557.54" y="234.81" width="7.75" height="3.34" transform="translate(-36.97 350.65) rotate(-33.64)"/><rect class="cls-11" x="560.86" y="239.79" width="7.75" height="3.34" transform="translate(-39.18 353.32) rotate(-33.64)"/><rect class="cls-11" x="563.55" y="244.08" width="7.75" height="3.34" transform="translate(-41.11 355.53) rotate(-33.64)"/></g></g></svg>