<svg xmlns="http://www.w3.org/2000/svg" viewBox="0 0 470.91 802.46"><defs><style>.cls-1{fill:#ffdcc8;}.cls-1,.cls-2,.cls-3,.cls-4,.cls-5{stroke:#231f20;stroke-linecap:round;stroke-miterlimit:10;}.cls-2{fill:#1e1e1e;}.cls-3{fill:#3c2a1d;}.cls-4{fill:#fdfdfd;}.cls-5{fill:#e6e7e8;}</style></defs><g id="Layer_2" data-name="Layer 2"><g id="Layer_1-2" data-name="Layer 1"><rect class="cls-1" x="418.91" y="557.84" width="43.08" height="48.09" rx="19.84" transform="translate(906.84 1143.21) rotate(177.4)"/><rect class="cls-1" x="436.82" y="611" width="30.31" height="5.96" transform="translate(-140.88 1093.33) rotate(-92.6)"/><rect class="cls-1" x="425.22" y="614.63" width="30.31" height="5.96" transform="translate(-156.64 1085.54) rotate(-92.6)"/><rect class="cls-1" x="427.17" y="612.71" width="32.96" height="5.96" transform="translate(-151.29 1086.8) rotate(-92.6)"/><rect class="cls-1" x="419.63" y="612.08" width="24.44" height="5.96" transform="translate(-163 1074.37) rotate(-92.6)"/><polygon class="cls-1" points="460.91 593.45 467.81 616.32 461.07 619.41 454.17 596.53 460.91 593.45"/><rect class="cls-2" x="193.97" y="85.8" width="189.08" height="241.84" rx="16"/><rect class="cls-1" x="211.78" y="124.54" width="152.43" height="176.94" rx="31.4"/><rect class="cls-1" x="175.39" y="300.41" width="225.19" height="265.32" rx="31.4"/><path class="cls-1" d="M77.35,338.37H164a11.36,11.36,0,0,1,11.36,11.36v42.77A11.36,11.36,0,0,1,164,403.86H66a0,0,0,0,1,0,0V349.73A11.36,11.36,0,0,1,77.35,338.37Z"/><path class="cls-1" d="M-31.61,294.9H98.1a11.36,11.36,0,0,1,11.36,11.36V349A11.36,11.36,0,0,1,98.1,360.39H-43a0,0,0,0,1,0,0V306.26A11.36,11.36,0,0,1-31.61,294.9Z" transform="translate(-294.4 360.89) rotate(-90)"/><rect class="cls-1" x="25.22" y="199.27" width="30.31" height="7.54" transform="translate(243.42 162.66) rotate(90)"/><rect class="cls-1" x="38.77" y="202.2" width="24.44" height="7.54" transform="translate(256.96 154.98) rotate(90)"/><rect class="cls-1" x="4.62" y="211.57" width="54.47" height="48.09" rx="19.84"/><path class="cls-1" d="M400.59,346.61H459A11.36,11.36,0,0,1,470.41,358v42.77A11.36,11.36,0,0,1,459,412.1h-47.1a11.36,11.36,0,0,1-11.36-11.36V346.61a0,0,0,0,1,0,0Z" transform="translate(870.99 758.7) rotate(-180)"/><path class="cls-1" d="M359.28,453.54H500.35a11.36,11.36,0,0,1,11.36,11.36v42.77A11.36,11.36,0,0,1,500.35,519H370.65a11.36,11.36,0,0,1-11.36-11.36V453.54a0,0,0,0,1,0,0Z" transform="translate(-50.78 921.78) rotate(-90)"/><path class="cls-3" d="M123.85,651.1H348.72a11.36,11.36,0,0,1,11.36,11.36v42.77a11.36,11.36,0,0,1-11.36,11.36H135.21a11.36,11.36,0,0,1-11.36-11.36V651.1a0,0,0,0,1,0,0Z" transform="translate(925.81 441.88) rotate(90)"/><path class="cls-3" d="M224.7,651.1H438.21a11.36,11.36,0,0,1,11.36,11.36v42.77a11.36,11.36,0,0,1-11.36,11.36H213.34a0,0,0,0,1,0,0V662.46A11.36,11.36,0,0,1,224.7,651.1Z" transform="translate(1015.3 352.39) rotate(90)"/><ellipse class="cls-4" cx="258.25" cy="173.16" rx="19.6" ry="12.97" transform="translate(-7.59 11.89) rotate(-2.6)"/><ellipse class="cls-4" cx="320.73" cy="173.16" rx="19.6" ry="12.97" transform="translate(-7.52 14.72) rotate(-2.6)"/><ellipse class="cls-2" cx="320.73" cy="173.16" rx="9.08" ry="8.34" transform="translate(-7.52 14.72) rotate(-2.6)"/><ellipse class="cls-2" cx="258.25" cy="173.16" rx="9.08" ry="8.34" transform="matrix(1, -0.05, 0.05, 1, -7.59, 11.89)"/><path class="cls-4" d="M270.66,257.66h29.85a4.52,4.52,0,0,0,1.56-8.77l-6.73-2.47a19.78,19.78,0,0,0-13.65,0l-12.23,4.49A3.48,3.48,0,0,0,270.66,257.66Z"/><rect class="cls-2" x="297.08" y="237.3" width="47.29" height="16.1" rx="8.05" transform="translate(241.33 -150.58) rotate(41.25)"/><rect class="cls-2" x="230.38" y="237.3" width="47.29" height="16.1" rx="8.05" transform="translate(606.53 266.93) rotate(139.5)"/><path class="cls-5" d="M190.4,1.05c-5.1-3.39-21.16,9.89-24.55,15L19.15,236.48l18.17,12.09L184.77,27c3-4.47,10.1-23,5.63-26"/><rect class="cls-5" x="27.33" y="191.15" width="60.26" height="13.79" transform="translate(119.34 1.34) rotate(33.64)"/><path class="cls-2" d="M176.09,365l-.08.12a5.53,5.53,0,0,1-.53,3.12l.36-.84c-.32.88-.59,1.73-1,2.6,0,0,0,.08-.07.13-.12,4.39-.46,8.83-.41,13.18.06,5.11.25,10.25.25,15.38l61.91,72.47L254,456.24Z"/><rect class="cls-1" x="23.18" y="214.42" width="32.96" height="7.54" transform="matrix(0.54, 0.84, -0.84, 0.54, 201.32, 66.39)"/><rect class="cls-1" x="13.11" y="217.35" width="30.31" height="7.54" transform="translate(198.58 77.29) rotate(57.1)"/><rect class="cls-1" x="3.22" y="216.56" width="24.32" height="9.13" transform="translate(221.33 139.16) rotate(72.28)"/><rect class="cls-2" x="263.71" y="225.88" width="47.29" height="16.1" rx="8.05"/><path class="cls-2" d="M285.78,335.88h-7c-4.43,0-11.75-6.36-11.75-10.79L238.76,270.8a8.08,8.08,0,0,1,8.05-8.05h77.94a8.08,8.08,0,0,1,8.05,8.05l-29.47,54.8C303.33,330,290.2,335.88,285.78,335.88Z"/><rect class="cls-2" x="270.17" y="357.66" width="31.21" height="21.51" rx="8.05" transform="translate(654.19 82.64) rotate(90)"/><rect class="cls-2" x="270.17" y="337.7" width="31.21" height="11.1" rx="5.55" transform="translate(629.03 57.47) rotate(90)"/><rect class="cls-2" x="400.77" y="352.81" width="68.68" height="18.31"/><rect class="cls-2" x="400.99" y="381.44" width="68.47" height="18.31"/><path class="cls-2" d="M156.18,338c-7.15.13-14.35-.94-21.49-.14L32.06,404.23l2.18.06a8.57,8.57,0,0,1,1.13-.07c.1,0,.18,0,.28,0,.42,0,.83,0,1.25,0,3.56-.22,7-1,10.6-1a169.62,169.62,0,0,1,19.26.39l99.43-64.33A45.13,45.13,0,0,0,156.18,338Z"/><path class="cls-2" d="M175.79,358.16a53.33,53.33,0,0,1,.48-13.12L85.94,403.48c11.23-.19,22.7-1.73,33.85-.1L176,367C175.47,364.16,176,361,175.79,358.16Z"/><path class="cls-2" d="M398.14,317.52l-11.75-11.75-90.56,90.55,16.25,16.25,88-88C399.48,322.17,399,319.79,398.14,317.52Z"/><path class="cls-2" d="M193.94,303.9c-3.51,2.43-7.05,4.87-9.88,8.09-2.32,2.65-4,5.72-6.15,8.51L255,410.75l17.47-14.92Z"/><path class="cls-2" d="M400.71,376a86.91,86.91,0,0,1,.06-9.55,6.55,6.55,0,0,1-.27-3.14l.27-1.59s0-.24.07-.49a1.11,1.11,0,0,0,0-.19c0-.17,0-.37-.06-.51a1.33,1.33,0,0,0-.05-.19l-1.51-1.51-90.55,90.55,16.24,16.25L401,389.57C400.6,385.1,401,380.48,400.71,376Z"/></g></g></svg>