<svg xmlns="http://www.w3.org/2000/svg" viewBox="0 0 577.33 802.46"><defs><style>.cls-1{fill:#3c2a1d;}.cls-1,.cls-2,.cls-3,.cls-4,.cls-5,.cls-6{stroke:#231f20;stroke-linecap:round;stroke-miterlimit:10;}.cls-2{fill:#ffdcc8;}.cls-3{fill:#e6e7e8;}.cls-4{fill:#fdfdfd;}.cls-5{fill:#1e1e1e;}.cls-6{fill:#3a3632;}</style></defs><g id="Layer_2" data-name="Layer 2"><g id="Layer_1-2" data-name="Layer 1"><rect class="cls-1" x="195.32" y="85.8" width="189.08" height="264.77" rx="16"/><rect class="cls-2" x="213.13" y="124.54" width="152.43" height="176.94" rx="31.4"/><rect class="cls-3" x="176.75" y="300.41" width="225.19" height="265.32" rx="31.4"/><path class="cls-3" d="M78.7,338.37h86.68a11.36,11.36,0,0,1,11.36,11.36v42.77a11.36,11.36,0,0,1-11.36,11.36h-98a0,0,0,0,1,0,0V349.73A11.36,11.36,0,0,1,78.7,338.37Z"/><path class="cls-3" d="M-30.25,294.9H99.45a11.36,11.36,0,0,1,11.36,11.36V349a11.36,11.36,0,0,1-11.36,11.36H-41.62a0,0,0,0,1,0,0V306.26A11.36,11.36,0,0,1-30.25,294.9Z" transform="translate(-293.05 362.24) rotate(-90)"/><path class="cls-3" d="M191.75,1.05c-5.09-3.39-21.16,9.89-24.54,15L20.5,236.48l18.17,12.09L186.12,27c3-4.47,10.1-23,5.63-26"/><rect class="cls-3" x="28.68" y="191.15" width="60.26" height="13.79" transform="translate(119.57 0.59) rotate(33.64)"/><rect class="cls-2" x="5.35" y="199.27" width="30.31" height="7.54" transform="translate(223.54 182.54) rotate(90)"/><rect class="cls-2" x="26.58" y="199.27" width="30.31" height="7.54" transform="translate(244.77 161.31) rotate(90)"/><rect class="cls-2" x="14.63" y="197.94" width="32.96" height="7.54" transform="translate(232.83 170.6) rotate(90)"/><rect class="cls-2" x="40.12" y="202.2" width="24.44" height="7.54" transform="translate(258.31 153.63) rotate(90)"/><rect class="cls-2" x="-3.48" y="205.61" width="24.32" height="9.13" transform="translate(206.24 137.93) rotate(72.28)"/><rect class="cls-2" x="5.98" y="211.57" width="54.47" height="48.09" rx="19.84"/><path class="cls-3" d="M401.94,346.61h98A11.36,11.36,0,0,1,511.34,358v42.77A11.36,11.36,0,0,1,500,412.1H413.3a11.36,11.36,0,0,1-11.36-11.36V346.61a0,0,0,0,1,0,0Z" transform="translate(913.28 758.7) rotate(-180)"/><path class="cls-3" d="M467.87,303.14H608.94A11.36,11.36,0,0,1,620.3,314.5v42.77a11.36,11.36,0,0,1-11.36,11.36H479.23a11.36,11.36,0,0,1-11.36-11.36V303.14A0,0,0,0,1,467.87,303.14Z" transform="translate(208.2 879.97) rotate(-90)"/><path class="cls-3" d="M125.2,651.1H350.07a11.36,11.36,0,0,1,11.36,11.36v42.77a11.36,11.36,0,0,1-11.36,11.36H136.56a11.36,11.36,0,0,1-11.36-11.36V651.1a0,0,0,0,1,0,0Z" transform="translate(927.16 440.53) rotate(90)"/><path class="cls-3" d="M226.05,651.1H439.56a11.36,11.36,0,0,1,11.36,11.36v42.77a11.36,11.36,0,0,1-11.36,11.36H214.69a0,0,0,0,1,0,0V662.46A11.36,11.36,0,0,1,226.05,651.1Z" transform="translate(1016.65 351.04) rotate(90)"/><ellipse class="cls-4" cx="259.6" cy="173.16" rx="19.6" ry="12.97" transform="translate(-7.59 11.95) rotate(-2.6)"/><ellipse class="cls-4" cx="322.08" cy="173.16" rx="19.6" ry="12.97" transform="translate(-7.52 14.78) rotate(-2.6)"/><ellipse class="cls-5" cx="322.08" cy="173.16" rx="9.08" ry="8.34" transform="translate(-7.52 14.78) rotate(-2.6)"/><ellipse class="cls-5" cx="259.6" cy="173.16" rx="9.08" ry="8.34" transform="translate(-7.59 11.95) rotate(-2.6)"/><path class="cls-4" d="M272,257.66h29.85a4.52,4.52,0,0,0,1.56-8.77l-6.73-2.47a19.78,19.78,0,0,0-13.65,0l-12.23,4.49A3.48,3.48,0,0,0,272,257.66Z"/><rect class="cls-1" x="296.93" y="232.9" width="47.29" height="16.1" rx="8.05" transform="translate(142.53 -118.39) rotate(26.71)"/><rect class="cls-1" x="267.19" y="226.24" width="47.49" height="16.1" rx="8.05"/><rect class="cls-1" x="235.96" y="232.9" width="47.29" height="16.1" rx="8.05" transform="translate(599.81 339.49) rotate(153.29)"/><path class="cls-1" d="M301.53,315.81H276.06c-8.8,0-22.46-18.92-22.46-26v-8.34c0-7.07,7.2-12.85,16-12.85h39.49c8.8,0,16,5.78,16,12.85v8.34C325.09,296.89,310.33,315.81,301.53,315.81Z"/><path class="cls-6" d="M401.94,518.16c0-7.86.63-15.7.55-23.57a5.06,5.06,0,0,1,.18-1.38c-.12-1.37-.24-2.75-.32-4.11L190.55,304.54a4.15,4.15,0,0,1-.78.24,32.77,32.77,0,0,0-6.33,5.42,25.59,25.59,0,0,0-3.4,6c-1.59,4-4.12,10-3.7,14.6L401.73,527.16C401.48,524.28,401.93,521.12,401.94,518.16Z"/><path class="cls-6" d="M400.44,320c-1.33-3-4-5.42-6.08-7.84a46.28,46.28,0,0,0-7.15-7.05,26.25,26.25,0,0,0-6.39-3.26L176.68,479.7a39,39,0,0,1-.63,9.65c.69,2.09.32,4.33.08,6.67.05,2.34.1,4.69.25,7,.32,5,.74,9.86.22,14.85,0,.13.05.27.06.41L401.35,322.54A19.28,19.28,0,0,0,400.44,320Z"/><rect class="cls-2" x="521.72" y="222.01" width="43.08" height="48.09" rx="19.84" transform="translate(-10.6 24.89) rotate(-2.6)"/><rect class="cls-2" x="516.58" y="210.98" width="30.31" height="5.96" transform="translate(721.36 -326.93) rotate(87.4)"/><rect class="cls-2" x="528.18" y="207.35" width="30.31" height="5.96" transform="translate(728.81 -341.99) rotate(87.4)"/><rect class="cls-2" x="523.58" y="209.27" width="32.96" height="5.96" transform="translate(727.61 -336.88) rotate(87.4)"/><rect class="cls-2" x="539.64" y="209.9" width="24.44" height="5.96" transform="translate(739.49 -348.06) rotate(87.4)"/><polygon class="cls-2" points="522.8 234.5 515.9 211.62 522.64 208.53 529.54 231.41 522.8 234.5"/><path class="cls-1" d="M362,285.47l-16.92,19c-5.85,6.58-36.05,11.41-41.33,6.71l.75-12.72c-5.28-4.69-4.82-13.92,1-20.49l26.23-29.52c5.85-6.58,14.95-8.12,20.24-3.42l6.23,5.54C363.51,255.3,367.85,278.89,362,285.47Z"/><path class="cls-1" d="M215.92,289.18l16.92,19c5.85,6.57,36,11.4,41.34,6.71l-.75-12.72c5.28-4.7,4.82-13.92-1-20.5L246.16,252.2c-5.84-6.58-14.95-8.12-20.23-3.43l-6.23,5.55C214.41,259,210.08,282.6,215.92,289.18Z"/></g></g></svg>