<svg xmlns="http://www.w3.org/2000/svg" viewBox="0 0 454.45 844.52"><defs><style>.cls-1,.cls-7{fill:#765329;}.cls-1,.cls-2,.cls-3,.cls-4,.cls-5,.cls-6,.cls-7{stroke:#231f20;stroke-linecap:round;stroke-miterlimit:10;}.cls-2{fill:#ffdcc8;}.cls-3{fill:#aa8100;}.cls-4{fill:#e6e7e8;}.cls-5{fill:#fdfdfd;}.cls-6{fill:#1e1e1e;}.cls-7{stroke-width:0.25px;}</style></defs><g id="Layer_2" data-name="Layer 2"><g id="Layer_1-2" data-name="Layer 1"><rect class="cls-1" x="207.38" y="154.59" width="189.08" height="264.77" rx="16"/><path class="cls-2" d="M19.84,312.87H257.46a11.36,11.36,0,0,1,11.36,11.36v30.23a11.36,11.36,0,0,1-11.36,11.36H8.48a0,0,0,0,1,0,0v-41.6a11.36,11.36,0,0,1,11.36-11.36Z" transform="translate(-4.23 676.94) rotate(-134.84)"/><rect class="cls-2" x="406.55" y="577.53" width="43.08" height="48.09" rx="19.84" transform="translate(856.18 1203.16) rotate(-180)"/><path class="cls-2" d="M372.44,489.91H482a11.36,11.36,0,0,1,11.36,11.36v29.07A11.36,11.36,0,0,1,482,541.71H361.08a0,0,0,0,1,0,0V501.27A11.36,11.36,0,0,1,372.44,489.91Z" transform="translate(943.03 88.59) rotate(90)"/><rect class="cls-2" x="225.71" y="187.56" width="152.43" height="159.36" rx="31.4"/><rect class="cls-2" x="210.69" y="342.47" width="183.51" height="265.32" rx="31.4"/><rect class="cls-2" x="10.31" y="194.18" width="24.44" height="7.54" transform="translate(147.01 42.4) rotate(45.16)"/><rect class="cls-2" x="2.63" y="208.42" width="54.47" height="48.09" rx="19.84" transform="translate(-155.22 88.68) rotate(-44.84)"/><path class="cls-3" d="M403.91,385.85H442a11.36,11.36,0,0,1,11.36,11.36V440A11.36,11.36,0,0,1,442,451.34H404.31A11.36,11.36,0,0,1,393,440V396.81A11,11,0,0,1,403.91,385.85Z" transform="translate(846.31 837.19) rotate(-180)"/><path class="cls-4" d="M142.15,697.53H367a11.36,11.36,0,0,1,11.36,11.36v34A11.36,11.36,0,0,1,367,754.28H153.51a11.36,11.36,0,0,1-11.36-11.36V697.53A0,0,0,0,1,142.15,697.53Z" transform="translate(986.17 465.64) rotate(90)"/><path class="cls-4" d="M227.9,696.19H441.41a11.36,11.36,0,0,1,11.36,11.36v36.7a11.36,11.36,0,0,1-11.36,11.36H216.54a0,0,0,0,1,0,0V707.55A11.36,11.36,0,0,1,227.9,696.19Z" transform="translate(1060.56 391.25) rotate(90)"/><ellipse class="cls-5" cx="272.18" cy="218.61" rx="19.6" ry="12.97" transform="translate(-9.63 12.57) rotate(-2.6)"/><ellipse class="cls-5" cx="334.66" cy="218.61" rx="19.6" ry="12.97" transform="translate(-9.57 15.4) rotate(-2.6)"/><ellipse class="cls-6" cx="334.66" cy="218.61" rx="9.08" ry="8.34" transform="translate(-9.57 15.4) rotate(-2.6)"/><ellipse class="cls-6" cx="272.18" cy="218.61" rx="9.08" ry="8.34" transform="translate(-9.63 12.57) rotate(-2.6)"/><path class="cls-5" d="M320.07,293.13l-29.82,1.36a4.52,4.52,0,0,0-1.16,8.82l6.84,2.17a19.74,19.74,0,0,0,13.63-.62l12-5.05A3.48,3.48,0,0,0,320.07,293.13Z"/><rect class="cls-2" x="422.99" y="631.18" width="30.31" height="5.96" transform="translate(-196.02 1072.3) rotate(-90)"/><rect class="cls-2" x="411.23" y="634.28" width="30.31" height="5.96" transform="translate(-210.88 1063.65) rotate(-90)"/><rect class="cls-2" x="413.27" y="632.51" width="32.96" height="5.96" transform="translate(-205.75 1065.24) rotate(-90)"/><rect class="cls-2" x="405.77" y="631.35" width="24.44" height="5.96" transform="translate(-216.34 1052.32) rotate(-90)"/><polygon class="cls-2" points="448 614.05 453.86 637.22 446.98 640 441.12 616.83 448 614.05"/><path class="cls-4" d="M.69,236.48l18.18,12.09L166.31,27c3-4.47,10.11-23,5.63-26h0c-5.09-3.39-21.15,9.89-24.54,15Z"/><rect class="cls-4" x="8.87" y="191.15" width="60.26" height="13.79" transform="translate(116.25 11.57) rotate(33.64)"/><rect class="cls-2" x="9.39" y="211.26" width="30.31" height="7.54" transform="translate(159.72 46.01) rotate(45.16)"/><path class="cls-7" d="M378.13,173.78c0,45.72,16.5,82.72,36.88,82.72"/><path class="cls-7" d="M378,207.21c0,45.72,16.49,82.72,36.88,82.72"/><path class="cls-7" d="M375.76,245.62c0,45.72,16.49,82.72,36.87,82.72"/><path class="cls-7" d="M375.76,283.69c0,45.72,16.49,82.72,36.87,82.72"/><path class="cls-7" d="M222,169.13c0,45.73-16.5,82.73-36.88,82.73"/><path class="cls-7" d="M222.15,202.57c0,45.72-16.5,82.72-36.88,82.72"/><path class="cls-7" d="M224.41,241c0,45.73-16.49,82.73-36.87,82.73"/><path class="cls-7" d="M224.41,279.05c0,45.72-16.49,82.72-36.87,82.72"/><path class="cls-3" d="M86.21,378.45H323.84a11.36,11.36,0,0,1,11.36,11.36V420a11.36,11.36,0,0,1-11.36,11.36h-249a0,0,0,0,1,0,0v-41.6a11.36,11.36,0,0,1,11.36-11.36Z" transform="translate(62.44 835.82) rotate(-134.84)"/><path class="cls-3" d="M362.27,607.78H241.57a31.4,31.4,0,0,1-31.4-31.4V373.87c0-17.34,81.22,31.06,98.57,31.06h0c17.34,0,84.93-48.4,84.93-31.06V576.38A31.4,31.4,0,0,1,362.27,607.78Z"/><path class="cls-3" d="M241.57,569.45h120.7a31.4,31.4,0,0,1,31.4,31.41V803.37c0,17.34-81.23-31.06-98.57-31.06h0c-17.35,0-84.93,48.4-84.93,31.06V600.86A31.4,31.4,0,0,1,241.57,569.45Z"/></g></g></svg>