<svg xmlns="http://www.w3.org/2000/svg" viewBox="0 0 326.08 555.44"><defs><style>.cls-1{fill:#ffdcc8;}.cls-1,.cls-2,.cls-3,.cls-4,.cls-5,.cls-6,.cls-7{stroke:#231f20;stroke-linecap:round;stroke-miterlimit:10;}.cls-2,.cls-8{fill:#3c2a1d;}.cls-3{fill:#8e3a1a;}.cls-4{fill:#42505b;}.cls-5{fill:#e6e7e8;}.cls-6{fill:#fdfdfd;}.cls-7{fill:#1e1e1e;}</style></defs><g id="Layer_2" data-name="Layer 2"><g id="Layer_1-2" data-name="Layer 1"><rect class="cls-1" x="289.95" y="386.06" width="29.8" height="33.27" rx="11.11" transform="translate(627.66 791.16) rotate(177.4)"/><rect class="cls-1" x="302.34" y="422.84" width="20.97" height="4.13" transform="translate(-97.45 756.67) rotate(-92.6)"/><rect class="cls-1" x="294.31" y="425.35" width="20.97" height="4.13" transform="translate(-108.35 751.28) rotate(-92.6)"/><rect class="cls-1" x="295.66" y="424.02" width="22.8" height="4.13" transform="translate(-104.65 752.15) rotate(-92.6)"/><rect class="cls-1" x="290.45" y="423.59" width="16.91" height="4.13" transform="matrix(-0.05, -1, 1, -0.05, -112.75, 743.55)"/><polygon class="cls-1" points="319.01 410.69 323.78 426.52 319.11 428.65 314.34 412.83 319.01 410.69"/><rect class="cls-2" x="134.34" y="59.51" width="130.8" height="88" rx="16"/><rect class="cls-1" x="146.66" y="86.31" width="105.45" height="122.4" rx="31.4"/><rect class="cls-3" x="121.49" y="207.97" width="155.78" height="183.54" rx="31.4"/><path class="cls-4" d="M57.17,234.23h53a11.36,11.36,0,0,1,11.36,11.36v22.58a11.36,11.36,0,0,1-11.36,11.36H45.8a0,0,0,0,1,0,0V245.59A11.36,11.36,0,0,1,57.17,234.23Z"/><path class="cls-4" d="M-18.21,204.16H64.51a11.36,11.36,0,0,1,11.36,11.36V238.1a11.36,11.36,0,0,1-11.36,11.36H-29.57a0,0,0,0,1,0,0V215.52A11.36,11.36,0,0,1-18.21,204.16Z" transform="translate(-203.66 249.96) rotate(-90)"/><rect class="cls-1" x="17.6" y="138" width="20.97" height="5.22" transform="translate(168.7 112.53) rotate(90)"/><rect class="cls-1" x="26.98" y="140.03" width="16.91" height="5.22" transform="translate(178.07 107.21) rotate(90)"/><rect class="cls-1" x="3.35" y="146.52" width="37.68" height="33.27" rx="12.4"/><path class="cls-4" d="M277.27,239.93h36.94a11.36,11.36,0,0,1,11.36,11.36v22.58a11.36,11.36,0,0,1-11.36,11.36H288.64a11.36,11.36,0,0,1-11.36-11.36V239.93A0,0,0,0,1,277.27,239.93Z" transform="translate(602.85 525.17) rotate(-180)"/><path class="cls-4" d="M248.7,313.9h94.08a11.36,11.36,0,0,1,11.36,11.36v22.58a11.36,11.36,0,0,1-11.36,11.36H260.06a11.36,11.36,0,0,1-11.36-11.36V313.9A0,0,0,0,1,248.7,313.9Z" transform="translate(-35.13 637.98) rotate(-90)"/><path class="cls-5" d="M85.83,450.58H237.89a11.36,11.36,0,0,1,11.36,11.36v22.58a11.36,11.36,0,0,1-11.36,11.36H97.19a11.36,11.36,0,0,1-11.36-11.36V450.58A0,0,0,0,1,85.83,450.58Z" transform="translate(640.77 305.68) rotate(90)"/><path class="cls-5" d="M159.1,450.58H299.8a11.36,11.36,0,0,1,11.36,11.36v22.58a11.36,11.36,0,0,1-11.36,11.36H147.74a0,0,0,0,1,0,0V461.94A11.36,11.36,0,0,1,159.1,450.58Z" transform="translate(702.68 243.78) rotate(90)"/><ellipse class="cls-6" cx="178.81" cy="119.94" rx="13.56" ry="8.98" transform="translate(-5.26 8.23) rotate(-2.6)"/><ellipse class="cls-6" cx="222.03" cy="119.94" rx="13.56" ry="8.98" transform="translate(-5.21 10.19) rotate(-2.6)"/><ellipse class="cls-7" cx="222.03" cy="119.94" rx="6.28" ry="5.77" transform="translate(-5.21 10.19) rotate(-2.6)"/><ellipse class="cls-7" cx="178.81" cy="119.94" rx="6.28" ry="5.77" transform="translate(-5.26 8.23) rotate(-2.6)"/><path class="cls-6" d="M186.17,178.4h23.47a2.85,2.85,0,0,0,1-5.52L204,170.46a12.55,12.55,0,0,0-8.59,0l-10,3.7A2.19,2.19,0,0,0,186.17,178.4Z"/><rect class="cls-2" x="197.84" y="160.17" width="32.71" height="11.14" rx="4.15" transform="translate(97.37 -78.6) rotate(26.71)"/><rect class="cls-2" x="170.22" y="160.17" width="32.71" height="11.14" rx="4.15" transform="translate(427.75 229.91) rotate(153.29)"/><path class="cls-5" d="M131.87.88c-3.52-2.35-14.64,6.84-17,10.37L13.4,163.75,26,172.11,128,18.84c2.06-3.1,7-15.9,3.89-18"/><rect class="cls-5" x="19.06" y="132.39" width="41.68" height="9.54" transform="translate(82.67 0.87) rotate(33.64)"/><rect class="cls-1" x="16.19" y="148.49" width="22.8" height="5.22" transform="translate(139.47 45.87) rotate(57.1)"/><rect class="cls-1" x="9.22" y="150.52" width="20.97" height="5.22" transform="translate(137.57 53.41) rotate(57.1)"/><rect class="cls-1" x="2.38" y="149.97" width="16.82" height="6.32" transform="translate(153.36 96.23) rotate(72.28)"/><path class="cls-4" d="M271.92,446.57h-144c-17.34,0-6.07-14.06-6.07-31.4V240.11a31.4,31.4,0,0,1,31.41-31.4l46.59,32.59,46.38-32.59a31.4,31.4,0,0,1,31.41,31.4V415.17C277.64,432.51,289.26,446.57,271.92,446.57Z"/><rect class="cls-8" x="139.12" y="74.06" width="113.01" height="32.77" rx="16" transform="translate(-10.72 28.21) rotate(-8.03)"/><path class="cls-2" d="M199.85,230.57h-5.41c-3.44,0-9.13-4-9.13-6.87l-22-34.6c0-2.82,2.81-5.13,6.25-5.13h60.6c3.44,0,6.25,2.31,6.25,5.13L213.49,224C213.49,226.85,203.29,230.57,199.85,230.57Z"/></g></g></svg>